Coordinates
version=1
nRows=16
nColumns=40
inDegrees=yes

Units are S.I. units (second, meters, Newtons, ...)
Angles are in degrees.

endheader
time	pelvis_tilt	pelvis_list	pelvis_rotation	pelvis_tx	pelvis_ty	pelvis_tz	hip_flexion_r	hip_adduction_r	hip_rotation_r	knee_angle_r	knee_angle_r_beta	ankle_angle_r	subtalar_angle_r	mtp_angle_r	hip_flexion_l	hip_adduction_l	hip_rotation_l	knee_angle_l	knee_angle_l_beta	ankle_angle_l	subtalar_angle_l	mtp_angle_l	lumbar_extension	lumbar_bending	lumbar_rotation	arm_flex_r	arm_add_r	arm_rot_r	elbow_flex_r	pro_sup_r	wrist_flex_r	wrist_dev_r	arm_flex_l	arm_add_l	arm_rot_l	elbow_flex_l	pro_sup_l	wrist_flex_l	wrist_dev_l
     21.34000000	     -4.41795669	     -5.39674164	     -1.17981673	      0.96824945	      0.91594874	      0.40444109	     14.04759243	     -7.66483471	     -1.82023530	     47.70777151	     47.70777151	      3.76922775	      0.22452905	    -24.78184715	     22.47029436	     -5.55175828	     -2.00145311	     33.48748372	     33.48748372	     17.70521139	    -16.78706832	      7.37604136	     -9.99601391	      7.92484111	      3.21296974	     20.03417898	    -11.63246370	    -17.20261814	     25.22939047	     46.55696213	      0.00000000	      0.00000000	     14.10577357	    -12.00549897	     24.54545613	     26.90555412	     44.35532624	      0.00000000	      0.00000000
     21.36185714	     -4.25748119	     -5.31171585	     -1.68407358	      0.96736039	      0.91469741	      0.40209891	     16.69815198	     -7.84938271	     -0.88137025	     52.16604356	     52.16604356	      1.55473094	     -1.55092637	    -24.12934425	     22.27239473	     -5.46352615	     -2.50296413	     34.10330813	     34.10330813	     18.21678542	    -16.88521474	      7.05978977	    -10.24021185	      8.02107794	      2.45541555	     16.64370996	    -11.17374997	    -17.16094080	     23.76880600	     46.58973697	      0.00000000	      0.00000000	     16.23137620	    -12.57869446	     24.17077373	     27.86809472	     44.44882574	      0.00000000	      0.00000000
     21.38371429	     -4.07686804	     -5.44299450	     -2.23777481	      0.96653312	      0.91374217	      0.40005883	     19.19811518	     -7.56745144	      0.16328365	     56.28600851	     56.28600851	      0.48899567	     -2.85470477	    -19.94607803	     22.00214558	     -5.65777718	     -3.03414260	     34.68668146	     34.68668146	     18.82588883	    -16.77536134	      6.86845481	    -10.59438232	      8.37492903	      2.38698312	     12.54576457	    -11.17923506	    -16.55438027	     22.65404766	     46.58256186	      0.00000000	      0.00000000	     18.42632677	    -13.03677523	     22.62851652	     30.08093557	     44.75543824	      0.00000000	      0.00000000
     21.40557143	     -3.96424361	     -5.47076899	     -2.82322454	      0.96574605	      0.91325440	      0.39828348	     21.42656189	     -7.35052950	      1.03643392	     59.43381265	     59.43381265	     -1.00752627	     -4.38312029	    -17.95575602	     21.62013449	     -5.72236703	     -3.56772660	     34.93505545	     34.93505545	     19.24008329	    -16.83457761	      6.70604306	    -10.81189346	      8.58621364	      2.11248877	      8.73943579	    -11.02673750	    -16.39387277	     21.08305786	     46.61230166	      0.00000000	      0.00000000	     20.82190887	    -13.62357714	     21.87455350	     31.40898188	     44.90679170	      0.00000000	      0.00000000
     21.42742857	     -3.80778507	     -5.46240978	     -3.46649052	      0.96508022	      0.91346444	      0.39683342	     23.50871310	     -7.24347214	      1.70747461	     62.21540133	     62.21540133	      0.07259688	     -3.81178448	    -10.14204078	     20.98459021	     -5.78120637	     -4.25327395	     34.83920972	     34.83920972	     19.56233156	    -16.71951589	      6.54178983	    -11.14178916	      8.76201866	      1.67021341	      4.73106239	    -10.90402355	    -15.68145505	     21.00877007	     46.55854527	      0.00000000	      0.00000000	     22.80536762	    -14.29639114	     19.27017600	     33.50810595	     45.32601815	      0.00000000	      0.00000000
     21.44928571	     -3.70952127	     -5.56033131	     -4.14952229	      0.96443159	      0.91439385	      0.39603311	     25.06954061	     -6.87560315	      2.30649472	     63.47245394	     63.47245394	     -0.47295279	     -4.74430649	     -8.84529256	     20.25205417	     -5.95596615	     -4.86847844	     34.46469657	     34.46469657	     19.76752728	    -16.71602303	      6.53077801	    -11.36702073	      9.01708856	      1.48114545	      1.20841779	    -10.82118725	    -15.50988014	     19.77815452	     46.57725794	      0.00000000	      0.00000000	     25.18160803	    -15.03391467	     18.29307352	     34.91730751	     45.49171782	      0.00000000	      0.00000000
     21.47114286	     -3.72441498	     -5.69262399	     -4.80621994	      0.96379880	      0.91594270	      0.39568065	     26.33480663	     -6.63991516	      2.49738274	     63.63198364	     63.63198364	     -0.58686314	     -5.02342720	     -8.54009286	     19.49736592	     -6.15872828	     -5.43369703	     33.79909705	     33.79909705	     19.84409802	    -16.70418826	      6.66699862	    -11.39232656	      9.32692785	      0.36764560	     -1.56939827	    -10.66062696	    -15.56122530	     18.88090878	     46.59661032	      0.00000000	      0.00000000	     27.26633159	    -16.56558850	     17.70931733	     35.55993683	     45.58946921	      0.00000000	      0.00000000
     21.49300000	     -3.74362461	     -5.72158068	     -5.70734534	      0.96318230	      0.91822540	      0.39626811	     27.46331856	     -6.23207510	      3.05280172	     63.10342698	     63.10342698	      0.83925888	     -5.01043576	     -5.03242101	     18.41292072	     -6.36663458	     -6.42908872	     32.58006208	     32.58006208	     19.51256123	    -16.49275699	      6.13469985	    -11.62910783	      9.38420911	      0.63440889	     -6.02793195	    -10.56493447	    -15.10683371	     21.37833824	     46.44025676	      0.00000000	      0.00000000	     28.69851303	    -17.02846562	     13.05265648	     39.70952711	     46.17816539	      0.00000000	      0.00000000
     21.51485714	     -3.93278464	     -5.84507629	     -6.55375880	      0.96246506	      0.92091348	      0.39738920	     28.22281781	     -5.83892784	      3.23666288	     61.20607381	     61.20607381	      1.61211617	     -5.09214173	     -5.12096149	     17.42225616	     -6.63114717	     -7.21368245	     31.16588181	     31.16588181	     19.30847690	    -16.31242829	      6.49205657	    -11.48699783	      9.54749540	      0.25161699	     -8.60602345	    -10.43224969	    -15.03050682	     20.61113345	     46.44711799	      0.00000000	      0.00000000	     30.85796629	    -18.24647684	     12.25448560	     40.74727877	     46.29534291	      0.00000000	      0.00000000
     21.53671429	     -4.04323881	     -5.97224484	     -7.52839425	      0.96168223	      0.92391570	      0.39926837	     28.54882394	     -5.41968006	      3.40640763	     58.30634102	     58.30634102	      2.54549224	     -4.88548669	     -5.88475399	     16.24774936	     -6.94581892	     -8.20395823	     29.62422260	     29.62422260	     18.99214017	    -16.11184796	      6.66167606	    -11.59079967	      9.61538080	      0.56539804	    -11.47998541	    -10.25985751	    -14.92412821	     20.78164057	     46.40757838	      0.00000000	      0.00000000	     33.03039621	    -19.19277798	     10.65627240	     42.96054546	     46.50271354	      0.00000000	      0.00000000
     21.55857143	     -4.44742813	     -6.19835465	     -8.44996606	      0.96078130	      0.92661615	      0.40165302	     28.65985487	     -4.90339221	      3.30198645	     54.16729715	     54.16729715	      2.54397791	     -5.00146977	     -9.60346529	     15.34759428	     -7.39393167	     -9.08814611	     27.96194110	     27.96194110	     18.24308033	    -15.99462311	      5.97456250	    -11.41036805	      9.87425251	      0.11784203	    -14.92858604	    -10.22360651	    -14.11309330	     24.56386320	     46.15656137	      0.00000000	      0.00000000	     33.89851761	    -20.26148184	      6.02853497	     46.75315739	     46.98336138	      0.00000000	      0.00000000
     21.58042857	     -4.79850337	     -6.31712766	     -9.40928768	      0.95976749	      0.92926589	      0.40455533	     28.48637721	     -4.51948949	      3.09030450	     49.45350122	     49.45350122	      3.61759520	     -3.95924406	    -10.13107457	     14.37994012	     -7.73037773	    -10.05005619	     26.30723707	     26.30723707	     17.88794870	    -15.69738178	      6.30188963	    -11.21225083	      9.91308835	      0.33287537	    -17.00275137	     -9.97012651	    -13.70859987	     24.55622301	     46.11201278	      0.00000000	      0.00000000	     36.07924167	    -21.27263359	      4.94765165	     48.43613169	     47.11445446	      0.00000000	      0.00000000
     21.60228571	     -5.25748731	     -6.52967803	    -10.30605053	      0.95869957	      0.93145744	      0.40793614	     28.00546921	     -3.97837413	      2.69035989	     43.98754606	     43.98754606	      4.52624540	     -2.56032072	     -9.96154801	     13.64544914	     -8.21246882	    -10.90820691	     24.89685332	     24.89685332	     17.58018577	    -15.40565738	      6.58746516	    -10.87905774	     10.08783598	      0.33085771	    -18.68228891	     -9.74374554	    -13.59655790	     24.65484666	     46.08496002	      0.00000000	      0.00000000	     38.08632370	    -22.47201288	      4.09340519	     49.84583212	     47.22146014	      0.00000000	      0.00000000
     21.62414286	     -5.62498569	     -6.56241515	    -11.21060848	      0.95770153	      0.93309460	      0.41164223	     27.18581881	     -3.64423638	      2.09556535	     38.08315195	     38.08315195	      5.01240876	     -0.39077577	    -10.07986037	     12.80717725	     -8.49613861	    -11.87971749	     23.44066363	     23.44066363	     16.97411299	    -15.21486574	      5.96310608	    -10.80623489	     10.05253067	      0.29228912	    -21.30440285	     -9.62188517	    -12.39854189	     28.46050450	     45.81833904	      0.00000000	      0.00000000	     39.02185239	    -23.41789854	      0.54235716	     54.13553983	     47.56188424	      0.00000000	      0.00000000
     21.64600000	     -5.99588449	     -6.52662111	    -12.01342183	      0.95683421	      0.93412996	      0.41566058	     26.15191849	     -3.35294206	      1.16988349	     32.04221537	     32.04221537	      5.48964482	      2.61910437	     -8.43201487	     12.12754473	     -8.73186717	    -12.77957738	     22.28013886	     22.28013886	     16.72435294	    -14.86797476	      5.89859989	    -10.54459252	      9.91555750	      0.60195568	    -22.63792360	     -9.30673960	    -11.62066094	     28.93758904	     45.74106101	      0.00000000	      0.00000000	     40.95995032	    -24.20821267	     -0.52177021	     56.08401250	     47.68090464	      0.00000000	      0.00000000
     21.66785714	     -6.35242917	     -6.43572078	    -12.75018957	      0.95607493	      0.93439606	      0.42000909	     25.08638575	     -3.01972184	      0.07177145	     26.36692199	     26.36692199	      6.13633227	      6.19220906	     -4.64064212	     11.59820631	     -8.94833726	    -13.60768575	     21.41825489	     21.41825489	     16.46690955	    -14.66334719	      5.31651861	    -10.28329372	      9.74084838	      0.61625742	    -23.91373885	     -9.15935654	    -10.51348380	     30.40458969	     45.60984099	      0.00000000	      0.00000000	     42.28747398	    -25.06860189	     -2.23466267	     58.79826841	     47.84561912	      0.00000000	      0.00000000
